<svg xmlns="http://www.w3.org/2000/svg" xmlns:xlink="http://www.w3.org/1999/xlink" version="1.1" x="0px" y="0px" viewBox="0 0 100 125" style="enable-background:new 0 0 100 100;" xml:space="preserve"><path d="M29.4,37c2,0,4-0.6,5.7-1.6L50.3,52v30.4h-6.3c-0.6,0-1,0.4-1,1s0.4,1,1,1h14.7c0.6,0,1-0.4,1-1s-0.4-1-1-1h-6.3V52  l22.6-24.7V27c0-1-1-1.7-2.3-1.7H40.3c-0.4-5.6-5.1-10.1-10.9-10.1c-6,0-10.9,4.9-10.9,10.9C18.5,32.1,23.4,37,29.4,37z M51.4,50  C51.4,50,51.3,50,51.4,50c-0.1,0-0.2,0-0.2,0L37.3,34.9c1.2,0.2,2.5,0.3,4.1,0.3c4.3,0,6.7-0.9,9-1.7c2.2-0.8,4.3-1.6,8.3-1.6  c3.7,0,5.8,0.7,7.9,1.5L51.4,50z M68.1,31.8l-0.4-0.1c-2.3-0.9-4.7-1.7-9-1.7c-4.3,0-6.7,0.9-9,1.7c-2.2,0.8-4.3,1.6-8.3,1.6  c-3.1,0-5-0.5-6.6-1l-4.5-5h41.9L68.1,31.8z M29.4,17.2c4.6,0,8.5,3.6,8.9,8.1H30c-1.3,0-2.3,0.7-2.3,1.7v0.4l6,6.6  c-1.3,0.7-2.8,1.1-4.3,1.1c-4.9,0-8.9-4-8.9-8.9C20.5,21.2,24.5,17.2,29.4,17.2z"/><path d="M26.4,26.1c0-0.6-0.4-1-1-1H23c-0.6,0-1,0.4-1,1s0.4,1,1,1h2.4C26,27.1,26.4,26.7,26.4,26.1z"/><path d="M29.4,23.1c0.6,0,1-0.4,1-1v-2.4c0-0.6-0.4-1-1-1s-1,0.4-1,1v2.4C28.4,22.7,28.8,23.1,29.4,23.1z"/><path d="M25.9,28.2l-1.7,1.7c-0.4,0.4-0.4,1,0,1.4c0.2,0.2,0.5,0.3,0.7,0.3s0.5-0.1,0.7-0.3l1.7-1.7c0.4-0.4,0.4-1,0-1.4  S26.3,27.8,25.9,28.2z"/><path d="M32.2,24.3c0.3,0,0.5-0.1,0.7-0.3l1.7-1.7c0.4-0.4,0.4-1,0-1.4s-1-0.4-1.4,0l-1.7,1.7c-0.4,0.4-0.4,1,0,1.4  C31.7,24.2,31.9,24.3,32.2,24.3z"/><path d="M25.9,24c0.2,0.2,0.5,0.3,0.7,0.3s0.5-0.1,0.7-0.3c0.4-0.4,0.4-1,0-1.4l-1.7-1.7c-0.4-0.4-1-0.4-1.4,0s-0.4,1,0,1.4L25.9,24  z"/><text x="0" y="115" fill="#000000" font-size="5px" font-weight="bold" font-family="'Helvetica Neue', Helvetica, Arial-Unicode, Arial, Sans-serif">Created by Made by Made</text><text x="0" y="120" fill="#000000" font-size="5px" font-weight="bold" font-family="'Helvetica Neue', Helvetica, Arial-Unicode, Arial, Sans-serif">from the Noun Project</text></svg>