<svg xmlns="http://www.w3.org/2000/svg" xmlns:xlink="http://www.w3.org/1999/xlink" version="1.1" x="0px" y="0px" viewBox="0 0 100 125" style="enable-background:new 0 0 100 100;" xml:space="preserve"><path d="M44.1,83.6h14.2c1.6,0,2.9-1.3,3-2.9l1.9-63.5c0-0.4-0.1-0.8-0.4-1.1c-0.3-0.3-0.7-0.5-1.1-0.5h-21c-0.4,0-0.8,0.2-1.1,0.5  c-0.3,0.3-0.4,0.7-0.4,1.1l1.9,63.5C41.2,82.4,42.5,83.6,44.1,83.6z M59.3,80.7c0,0.5-0.4,1-1,1H44.1c-0.5,0-1-0.4-1-1l-1.7-54.8  c1,0.4,2.2,0.8,3.8,0.8c2.8,0,4.4-1,5.8-2c1.3-0.9,2.5-1.6,4.7-1.6c2.2,0,3.4,0.8,4.7,1.6L61,25L59.3,80.7z M61.2,17.7L61,22.7  c-1.3-0.8-2.8-1.6-5.3-1.6c-2.8,0-4.4,1-5.8,2c-1.3,0.9-2.5,1.6-4.7,1.6c-1.8,0-2.9-0.5-3.8-1.1l-0.1,0.1l-0.2-6H61.2z"/><path d="M56.3,36.1c-0.7-0.7-1.9-0.7-2.7,0L50.8,39c-0.4,0.4-0.6,0.8-0.6,1.3s0.2,1,0.6,1.3l2.8,2.8C54,44.8,54.5,45,55,45  c0.5,0,1-0.2,1.3-0.6l2.8-2.8c0.7-0.7,0.7-1.9,0-2.7L56.3,36.1z M55,43l-2.7-2.7l2.7-2.7l2.7,2.7L55,43z"/><path d="M51.6,47.9l-0.6-4c-0.1-0.5-0.3-0.9-0.7-1.2c-0.4-0.3-0.9-0.4-1.4-0.4l-4,0.6c-1,0.1-1.7,1.1-1.6,2.1l0.6,4  c0.1,0.5,0.3,0.9,0.7,1.2c0.3,0.2,0.7,0.4,1.1,0.4c0.1,0,0.2,0,0.3,0l4-0.6C51.1,49.9,51.8,49,51.6,47.9z M45.9,48.6l-0.5-3.8  l3.8-0.5l0.5,3.8L45.9,48.6z"/><path d="M45.9,36.4c0.3,0.7,1,1.2,1.7,1.2c0.2,0,0.5,0,0.7-0.1l3.7-1.5c1-0.4,1.4-1.5,1-2.5l-1.5-3.7c-0.2-0.5-0.6-0.8-1-1  c-0.5-0.2-1-0.2-1.4,0l-3.7,1.5c-0.5,0.2-0.8,0.6-1,1c-0.2,0.5-0.2,1,0,1.4L45.9,36.4z M49.8,30.6l1.5,3.5l-3.5,1.5l-1.5-3.5  L49.8,30.6z"/><path d="M55.5,51.8c-0.2-0.5-0.6-0.8-1-1c-0.5-0.2-1-0.2-1.4,0l-3.7,1.5c-0.5,0.2-0.8,0.6-1,1c-0.2,0.5-0.2,1,0,1.4l1.5,3.7  c0.3,0.7,1,1.2,1.7,1.2c0.2,0,0.5,0,0.7-0.1l3.7-1.5c1-0.4,1.4-1.5,1-2.5L55.5,51.8z M51.7,57.6l-1.5-3.5l3.5-1.5l1.5,3.5L51.7,57.6  z"/><text x="0" y="115" fill="#000000" font-size="5px" font-weight="bold" font-family="'Helvetica Neue', Helvetica, Arial-Unicode, Arial, Sans-serif">Created by Made by Made</text><text x="0" y="120" fill="#000000" font-size="5px" font-weight="bold" font-family="'Helvetica Neue', Helvetica, Arial-Unicode, Arial, Sans-serif">from the Noun Project</text></svg>