<svg xmlns="http://www.w3.org/2000/svg" xmlns:xlink="http://www.w3.org/1999/xlink" version="1.1" x="0px" y="0px" viewBox="0 0 100 125" style="enable-background:new 0 0 100 100;" xml:space="preserve"><path d="M71.3,28.1c-0.4,0-0.7,0.1-0.9,0.5c-0.2,0.3-0.2,0.7,0,1.1l1,1.6l-0.7,1.7c-0.2,0.4-0.1,0.8,0.2,1c0.2,0.3,0.6,0.4,1,0.3  l1.8-0.5L75,35c0.2,0.2,0.4,0.2,0.7,0.2c0.1,0,0.3,0,0.4-0.1c0.4-0.1,0.6-0.5,0.6-0.9l0.1-1.8l1.6-0.9c0.3-0.2,0.5-0.6,0.5-0.9  c0-0.4-0.3-0.7-0.6-0.9l-1.7-0.7l-0.4-1.8c-0.1-0.4-0.4-0.7-0.7-0.8c-0.4-0.1-0.8,0-1,0.3l-1.2,1.4L71.3,28.1z M74.3,30l0.2-0.3  l0.1,0.3c0.1,0.3,0.3,0.6,0.6,0.7l0.3,0.1L75.3,31c-0.3,0.2-0.5,0.5-0.5,0.8l0,0.4L74.5,32c-0.2-0.2-0.4-0.2-0.7-0.2  c-0.1,0-0.2,0-0.2,0l-0.3,0.1l0.1-0.3c0.1-0.3,0.1-0.6-0.1-0.9l-0.2-0.3l0.4,0C73.8,30.3,74.1,30.2,74.3,30z"/><path d="M22.4,33.9c0.2,0.3,0.6,0.4,1,0.3l1.8-0.5l1.4,1.2c0.2,0.2,0.4,0.2,0.7,0.2c0.1,0,0.3,0,0.4-0.1c0.4-0.1,0.6-0.5,0.6-0.9  l0.1-1.8l1.6-0.9c0.3-0.2,0.5-0.6,0.5-0.9c0-0.4-0.3-0.7-0.6-0.9l-1.7-0.7l-0.4-1.8c-0.1-0.4-0.4-0.7-0.7-0.8c-0.4-0.1-0.8,0-1,0.3  l-1.2,1.4l-1.8-0.2c-0.4,0-0.7,0.1-0.9,0.5c-0.2,0.3-0.2,0.7,0,1.1l1,1.6l-0.7,1.7C22.1,33.3,22.1,33.7,22.4,33.9z M25.1,30.3  c0.3,0,0.6-0.1,0.9-0.4l0.2-0.3l0.1,0.3c0.1,0.3,0.3,0.6,0.6,0.7l0.3,0.1L26.9,31c-0.3,0.2-0.5,0.5-0.5,0.8l0,0.4L26.1,32  c-0.2-0.2-0.4-0.2-0.7-0.2c-0.1,0-0.2,0-0.2,0l-0.3,0.1l0.1-0.3c0.1-0.3,0.1-0.6-0.1-0.9l-0.2-0.3L25.1,30.3z"/><path d="M20.5,16.3l1.5,1l0,1.9c0,0.4,0.2,0.7,0.6,0.9c0.1,0.1,0.3,0.1,0.4,0.1c0.2,0,0.4-0.1,0.6-0.2l1.5-1.1l1.8,0.6  c0.4,0.1,0.8,0,1-0.3c0.3-0.3,0.4-0.7,0.2-1l-0.6-1.7l1.1-1.5c0.2-0.3,0.3-0.7,0.1-1.1c-0.2-0.3-0.5-0.6-0.9-0.5l-1.9,0l-1.1-1.5  c-0.2-0.3-0.6-0.5-1-0.4c-0.4,0.1-0.7,0.3-0.8,0.7L22.5,14l-1.8,0.6c-0.4,0.1-0.6,0.4-0.7,0.8C20,15.7,20.2,16.1,20.5,16.3z   M23.6,15.7c0.3-0.1,0.6-0.4,0.6-0.7l0.1-0.3l0.2,0.3c0.2,0.3,0.5,0.4,0.8,0.4l0.4,0l-0.2,0.3c-0.2,0.3-0.2,0.6-0.1,0.9l0.1,0.3  l-0.3-0.1c-0.3-0.1-0.7,0-0.9,0.2L24,17.2v-0.4c0-0.3-0.2-0.6-0.4-0.8l-0.3-0.2L23.6,15.7z"/><ellipse transform="matrix(0.661 -0.7504 0.7504 0.661 -3.3986 37.6967)" cx="40" cy="22.6" rx="0.7" ry="0.7"/><ellipse transform="matrix(0.6609 -0.7504 0.7504 0.6609 2.7291 50.971)" cx="57.8" cy="22.5" rx="0.7" ry="0.7"/><path d="M71.2,16.9c0.1,0,0.1,0,0.2,0c0.7,0,1.4-0.4,1.9-0.9c0.5-0.6,0.7-1.3,0.7-2c0-0.7-0.4-1.4-0.9-1.9c-0.6-0.5-1.3-0.7-2-0.7  c-0.7,0-1.4,0.4-1.9,0.9c-0.5,0.6-0.7,1.3-0.7,2c0,0.7,0.4,1.4,0.9,1.9C69.9,16.7,70.5,16.9,71.2,16.9z M70.6,13.6L70.6,13.6  c0.1-0.2,0.3-0.3,0.5-0.3c0,0,0,0,0.1,0c0.2,0,0.4,0.1,0.5,0.2c0.2,0.1,0.3,0.3,0.3,0.5c0,0.2-0.1,0.4-0.2,0.6  c-0.1,0.2-0.3,0.3-0.5,0.3c-0.2,0-0.4-0.1-0.6-0.2c-0.2-0.1-0.3-0.3-0.3-0.5C70.4,13.9,70.5,13.7,70.6,13.6z"/><path d="M48.8,19.8c0.1,0,0.1,0,0.2,0c0.7,0,1.4-0.4,1.9-0.9c0.5-0.6,0.7-1.3,0.7-2c0-0.7-0.4-1.4-0.9-1.9c-0.6-0.5-1.3-0.7-2-0.7  c-0.7,0-1.4,0.4-1.9,0.9c-0.5,0.6-0.7,1.3-0.7,2c0,0.7,0.4,1.4,0.9,1.9C47.5,19.5,48.2,19.8,48.8,19.8z M48.2,16.5  C48.2,16.5,48.2,16.5,48.2,16.5c0.1-0.2,0.3-0.3,0.5-0.3c0,0,0,0,0.1,0c0.2,0,0.4,0.1,0.5,0.2c0.2,0.1,0.3,0.3,0.3,0.5  c0,0.2-0.1,0.4-0.2,0.6c-0.1,0.2-0.3,0.3-0.5,0.3c-0.2,0-0.4-0.1-0.6-0.2c-0.2-0.1-0.3-0.3-0.3-0.5C48,16.8,48.1,16.6,48.2,16.5z"/><path d="M52.6,28.9C52.6,28.9,52.6,28.9,52.6,28.9c0.6,0,1-0.4,1.1-0.9c0-0.1,0.8-8.2,8.4-14.9c0.4-0.4,0.5-1,0.1-1.4  c-0.4-0.4-1-0.5-1.4-0.1c-8.2,7.2-9.1,15.9-9.1,16.2C51.6,28.3,52,28.8,52.6,28.9z"/><path d="M36.9,12.8c8.3,5.3,8,14.5,8,14.8c0,0.6,0.4,1,0.9,1c0,0,0,0,0.1,0c0.5,0,1-0.4,1-0.9c0-0.4,0.4-10.6-8.9-16.6  c-0.5-0.3-1.1-0.2-1.4,0.3C36.3,11.9,36.4,12.5,36.9,12.8z"/><path d="M68.9,21.9C68.9,21.9,68.9,21.9,68.9,21.9c-5.9,0-9,5.7-9.2,6c-0.3,0.5-0.1,1.1,0.4,1.4c0.2,0.1,0.3,0.1,0.5,0.1  c0.4,0,0.7-0.2,0.9-0.5c0,0,2.7-4.9,7.4-4.9c0.6,0,1-0.4,1-1C69.9,22.4,69.4,21.9,68.9,21.9z"/><path d="M28.5,23.1c0.1,0.5,0.7,0.9,1.2,0.7c4.8-1.1,8.5,4.8,8.5,4.8c0.2,0.3,0.5,0.5,0.9,0.5c0.2,0,0.4,0,0.5-0.1  c0.5-0.3,0.6-0.9,0.3-1.4c-0.2-0.3-4.5-7.2-10.7-5.7C28.7,22.1,28.4,22.6,28.5,23.1z"/><path d="M56.2,30.6H42.7c-0.5,0-0.9,0.3-1,0.8c-0.6,3.4-0.9,11.9-0.9,15.4c0,11.5,3.2,20.3,7.7,21.5v20H43c-0.6,0-1,0.4-1,1  s0.4,1,1,1h12.8c0.6,0,1-0.4,1-1s-0.4-1-1-1h-5.5v-20c4.5-1.2,7.7-10,7.7-21.5c0-3.5-0.3-12-0.9-15.4C57.1,31,56.7,30.6,56.2,30.6z   M55.3,32.6c0.4,2.7,0.6,7.3,0.7,10.9c-0.8-0.5-1.8-0.9-3.2-0.9c-2.2,0-3.5,0.9-4.6,1.8c-1,0.8-1.8,1.4-3.3,1.4  c-0.9,0-1.6-0.2-2.2-0.6c0.1-3.6,0.3-9.4,0.8-12.6H55.3z M49.4,66.4c-3.1,0-6.6-7.8-6.7-19c0.6,0.2,1.3,0.4,2.2,0.4  c2.2,0,3.5-0.9,4.6-1.8c1-0.8,1.8-1.4,3.3-1.4c1.5,0,2.3,0.6,3.3,1.3c0,0.3,0,0.6,0,0.9C56.1,58.4,52.6,66.4,49.4,66.4z"/><text x="0" y="115" fill="#000000" font-size="5px" font-weight="bold" font-family="'Helvetica Neue', Helvetica, Arial-Unicode, Arial, Sans-serif">Created by Made by Made</text><text x="0" y="120" fill="#000000" font-size="5px" font-weight="bold" font-family="'Helvetica Neue', Helvetica, Arial-Unicode, Arial, Sans-serif">from the Noun Project</text></svg>