<svg xmlns="http://www.w3.org/2000/svg" xmlns:xlink="http://www.w3.org/1999/xlink" version="1.1" x="0px" y="0px" viewBox="0 0 100 125" style="enable-background:new 0 0 100 100;" xml:space="preserve"><path d="M41.6,81.4h18.7c2,0,3.6-1.2,3.6-2.8l2.5-59.9c0-0.4-0.1-0.7-0.4-1c-0.3-0.3-0.8-0.5-1.2-0.5H37.1c-0.5,0-0.9,0.2-1.2,0.5  c-0.3,0.3-0.4,0.6-0.4,1L38,78.6C38.1,80.2,39.6,81.4,41.6,81.4z M62,78.5c0,0.4-0.6,0.9-1.6,0.9H41.6c-1,0-1.6-0.5-1.6-0.9  l-1.8-41.6c1.2,0.5,2.7,0.9,4.8,0.9c3.7,0,5.6-1.2,7.5-2.4c1.8-1.1,3.4-2.1,6.5-2.1c3.1,0,4.8,1,6.5,2.1l0.2,0.1L62,78.5z   M64.5,19.1l-0.6,14.2c-1.7-1-3.6-1.9-6.8-1.9c-3.6,0-5.6,1.2-7.5,2.4c-1.8,1.1-3.4,2.1-6.5,2.1c-2.2,0-3.7-0.5-4.9-1.1l-0.7-15.5  H64.5z"/><path d="M55.6,47.9c-0.7-0.7-1.9-0.7-2.7,0l-2.8,2.8c-0.4,0.4-0.6,0.8-0.6,1.3s0.2,1,0.6,1.3l2.8,2.8c0.4,0.4,0.8,0.6,1.3,0.6  c0.5,0,1-0.2,1.3-0.6l2.8-2.8c0.4-0.4,0.6-0.8,0.6-1.3s-0.2-1-0.6-1.3L55.6,47.9z M54.2,54.8l-2.7-2.7l2.7-2.7l2.7,2.7L54.2,54.8z"/><path d="M49.8,57.5c-0.1-0.5-0.3-0.9-0.7-1.2c-0.4-0.3-0.9-0.4-1.4-0.4l-4,0.6c-1,0.1-1.7,1.1-1.6,2.1l0.6,4  c0.1,0.5,0.3,0.9,0.7,1.2c0.3,0.2,0.7,0.4,1.1,0.4c0.1,0,0.2,0,0.3,0l4-0.6c1-0.1,1.7-1.1,1.6-2.1L49.8,57.5z M44.6,62.2L44,58.4  l3.8-0.5l0.5,3.8L44.6,62.2z"/><path d="M59.8,39.4c-0.1-0.5-0.3-0.9-0.7-1.2c-0.4-0.3-0.9-0.4-1.4-0.4l-4,0.6c-1,0.1-1.7,1.1-1.6,2.1l0.6,4  c0.1,0.5,0.3,0.9,0.7,1.2c0.3,0.2,0.7,0.4,1.1,0.4c0.1,0,0.2,0,0.3,0l4-0.6c1-0.1,1.7-1.1,1.6-2.1L59.8,39.4z M54.6,44.1l-0.5-3.8  l3.8-0.5l0.5,3.8L54.6,44.1z"/><path d="M43.9,49.1c0.2,0,0.5,0,0.7-0.1l3.7-1.5c1-0.4,1.4-1.5,1-2.5l-1.5-3.7c-0.2-0.5-0.6-0.8-1-1c-0.5-0.2-1-0.2-1.4,0l-3.7,1.5  c-0.5,0.2-0.8,0.6-1,1c-0.2,0.5-0.2,1,0,1.4l1.5,3.7C42.5,48.6,43.2,49.1,43.9,49.1z M46,42.1l1.5,3.5L44,47l-1.5-3.5L46,42.1z"/><text x="0" y="115" fill="#000000" font-size="5px" font-weight="bold" font-family="'Helvetica Neue', Helvetica, Arial-Unicode, Arial, Sans-serif">Created by Made by Made</text><text x="0" y="120" fill="#000000" font-size="5px" font-weight="bold" font-family="'Helvetica Neue', Helvetica, Arial-Unicode, Arial, Sans-serif">from the Noun Project</text></svg>