<svg xmlns="http://www.w3.org/2000/svg" xmlns:xlink="http://www.w3.org/1999/xlink" version="1.1" x="0px" y="0px" viewBox="0 0 100 125" style="enable-background:new 0 0 100 100;" xml:space="preserve"><path d="M30.7,32.7c0,0,0,1.6,0,4.3c-1.7-0.4-5.7-1.1-8.4,0.8c-1.7,1.2-2.6,3.2-2.6,6c0,10.2,7.4,19.6,14.3,25.1  c2.1,9.3,5.2,16.1,9.2,20.1c0.2,0.2,0.4,0.3,0.7,0.3h20.2c0.3,0,0.5-0.1,0.7-0.3c5.7-5.7,9.5-16.9,11.4-33.3  c1.4-12.1,1.1-22.8,1.1-22.9c0-0.5-0.5-1-1-1H31.7C31.2,31.7,30.8,32.2,30.7,32.7z M21.8,43.8c0-2,0.6-3.5,1.7-4.3  c2.3-1.7,6.3-0.7,7.2-0.4c0.1,4.2,0.4,10.2,1.1,16.5c0.4,3.6,0.9,7,1.5,10.1C26.2,59.3,21.8,51.1,21.8,43.8z M32.7,33.7h42.7  c0,6.3-0.2,41.4-11.7,53.5H44.4C33,75.2,32.7,40.1,32.7,33.7z"/><path d="M56.8,25.4c-0.6,0-1,0.4-1,1s0.4,1,1,1c2.3,0,4.2-1.9,4.2-4.2s-1.9-4.2-4.2-4.2c-1.2,0-2.2-1-2.2-2.2s1-2.2,2.2-2.2  c0.6,0,1-0.4,1-1s-0.4-1-1-1c-2.3,0-4.2,1.9-4.2,4.2s1.9,4.2,4.2,4.2c1.2,0,2.2,1,2.2,2.2S58,25.4,56.8,25.4z"/><path d="M48.3,25.4c-0.6,0-1,0.4-1,1s0.4,1,1,1c2.3,0,4.2-1.9,4.2-4.2s-1.9-4.2-4.2-4.2c-1.2,0-2.2-1-2.2-2.2s1-2.2,2.2-2.2  c0.6,0,1-0.4,1-1s-0.4-1-1-1c-2.3,0-4.2,1.9-4.2,4.2s1.9,4.2,4.2,4.2c1.2,0,2.2,1,2.2,2.2S49.5,25.4,48.3,25.4z"/><text x="0" y="115" fill="#000000" font-size="5px" font-weight="bold" font-family="'Helvetica Neue', Helvetica, Arial-Unicode, Arial, Sans-serif">Created by Made by Made</text><text x="0" y="120" fill="#000000" font-size="5px" font-weight="bold" font-family="'Helvetica Neue', Helvetica, Arial-Unicode, Arial, Sans-serif">from the Noun Project</text></svg>