<svg xmlns="http://www.w3.org/2000/svg" xmlns:xlink="http://www.w3.org/1999/xlink" version="1.1" x="0px" y="0px" viewBox="0 0 100 125" style="enable-background:new 0 0 100 100;" xml:space="preserve"><path d="M53.147,39.256l3.901,0.558c0.089,0.013,0.179,0.02,0.268,0.02c0.401,0,0.791-0.129,1.119-0.375  c0.4-0.3,0.66-0.737,0.73-1.231l0.558-3.901c0.071-0.494-0.056-0.986-0.355-1.386s-0.737-0.66-1.231-0.73l-3.901-0.558  c-0.497-0.074-0.986,0.055-1.386,0.355c-0.4,0.3-0.66,0.737-0.73,1.231l-0.559,3.903C51.415,38.161,52.126,39.11,53.147,39.256z   M54.08,33.65l3.645,0.521l-0.521,3.645l-3.645-0.521L54.08,33.65z"/><path d="M61.106,58.253c-0.491-0.097-0.989,0.003-1.403,0.282l-3.271,2.197c-0.414,0.278-0.695,0.701-0.792,1.192  s0.003,0.989,0.281,1.404l2.198,3.272c0.36,0.537,0.953,0.827,1.555,0.827c0.358,0,0.721-0.103,1.04-0.317l3.272-2.197  c0.855-0.575,1.084-1.739,0.51-2.596l-2.197-3.271C62.021,58.631,61.597,58.35,61.106,58.253z M59.706,65.377l-2.053-3.057  l3.057-2.053l2.053,3.057L59.706,65.377z"/><path d="M53.223,57.225c0.146,0.398,0.524,0.656,0.938,0.656c0.047,0,0.094-0.003,0.142-0.01c0.571-0.081,1.137-0.226,1.682-0.43  c4.149-1.55,6.264-6.187,4.713-10.337c-0.751-2.01-2.24-3.607-4.192-4.498s-4.135-0.967-6.145-0.216  c-0.511,0.191-1.001,0.433-1.459,0.719c-0.4,0.251-0.571,0.748-0.408,1.191L53.223,57.225z M51.061,44.264  c1.509-0.563,3.148-0.506,4.615,0.162c1.467,0.669,2.585,1.869,3.149,3.378c0.564,1.509,0.506,3.148-0.163,4.615  c-0.668,1.467-1.868,2.585-3.378,3.149c-0.158,0.059-0.319,0.111-0.48,0.157l-4.135-11.299  C50.797,44.367,50.928,44.313,51.061,44.264z"/><path d="M54.936,49.278c0.15,0.402,0.532,0.651,0.937,0.651c0.116,0,0.234-0.021,0.35-0.063l0.683-0.255  c0.518-0.193,0.78-0.77,0.587-1.287c-0.193-0.518-0.77-0.781-1.287-0.587l-0.683,0.255C55.005,48.185,54.743,48.761,54.936,49.278z"/><path d="M54.975,47.412l0.314-1.004c0.165-0.527-0.129-1.088-0.656-1.253c-0.525-0.163-1.088,0.128-1.253,0.656l-0.314,1.004  c-0.165,0.527,0.129,1.088,0.656,1.253c0.099,0.031,0.2,0.046,0.299,0.046C54.446,48.114,54.841,47.84,54.975,47.412z"/><path d="M55.182,52.352l0.832,0.523c0.165,0.104,0.349,0.153,0.531,0.153c0.333,0,0.658-0.166,0.848-0.468  c0.294-0.467,0.153-1.085-0.314-1.379l-0.832-0.523c-0.467-0.294-1.085-0.153-1.379,0.314C54.573,51.44,54.714,52.058,55.182,52.352  z"/><path d="M61.025,71.484l-11.89-6.93c-0.408-0.237-0.926-0.157-1.244,0.192c-0.387,0.426-0.73,0.898-1.02,1.404  c-2.205,3.842-0.872,8.762,2.97,10.966c1.257,0.722,2.629,1.064,3.984,1.064c2.786,0,5.499-1.449,6.982-4.034  c0.27-0.47,0.493-0.97,0.664-1.484C61.62,72.214,61.434,71.722,61.025,71.484z M59.073,73.151c-1.656,2.885-5.351,3.886-8.237,2.231  c-2.885-1.656-3.886-5.351-2.23-8.236c0.084-0.146,0.174-0.29,0.27-0.428l10.395,6.059C59.209,72.903,59.143,73.028,59.073,73.151z"/><path d="M51.523,72.134l-0.363,0.632c-0.275,0.479-0.109,1.09,0.37,1.365c0.157,0.09,0.328,0.133,0.497,0.133  c0.347,0,0.684-0.18,0.868-0.502l0.363-0.632c0.275-0.479,0.109-1.09-0.37-1.365C52.409,71.488,51.798,71.654,51.523,72.134z"/><path d="M54.449,74.199c0.159,0.387,0.532,0.622,0.926,0.622c0.126,0,0.254-0.024,0.378-0.075c0.511-0.209,0.756-0.793,0.546-1.304  l-0.399-0.974c-0.209-0.511-0.791-0.754-1.304-0.546c-0.511,0.209-0.756,0.793-0.546,1.304L54.449,74.199z"/><path d="M49.893,71.675c0.044,0,0.088-0.003,0.132-0.009l0.974-0.128c0.547-0.072,0.933-0.574,0.86-1.122  c-0.072-0.547-0.579-0.935-1.122-0.86l-0.974,0.128c-0.547,0.072-0.933,0.574-0.86,1.122C48.969,71.309,49.398,71.675,49.893,71.675  z"/><path d="M42.09,33.123c0.055-0.001,1.08-0.029,2.059-0.166c0.73,4.685,1.055,10.436-0.075,16.129  c-0.446,2.246-1.009,4.593-1.554,6.862c-2.179,9.079-4.238,17.654-0.146,22.848c2.171,2.755,5.83,4.171,11.12,4.348V88h-6.367  c-0.552,0-1,0.448-1,1s0.448,1,1,1h14.734c0.552,0,1-0.448,1-1s-0.448-1-1-1h-6.367v-4.849c5.182-0.144,8.795-1.54,10.986-4.288  c4.252-5.333,2.108-14.69,0.036-23.74c-0.456-1.992-0.928-4.051-1.322-6.026c-2.603-13.048,2.435-26.391,2.486-26.524  c0.118-0.307,0.077-0.653-0.109-0.925s-0.494-0.434-0.824-0.434l-12.115-0.007C54.318,14.976,49.165,10,42.858,10  c-6.509,0-11.804,5.295-11.804,11.804C31.054,27.342,35.171,33.09,42.09,33.123z M64.566,55.57  c1.967,8.587,4.001,17.468,0.351,22.047c-1.912,2.397-5.281,3.563-10.3,3.563c-0.006,0-0.014,0-0.02,0  c-5.25-0.003-8.734-1.188-10.651-3.621c-3.492-4.433-1.453-12.928,0.519-21.144c0.549-2.288,1.117-4.654,1.571-6.939  c1.458-7.345,0.648-14.623-0.441-19.874c0.833,0.199,1.848,0.344,3.156,0.344c2.677,0,4.136-0.585,5.546-1.15  c1.291-0.518,2.511-1.006,4.801-1.006c2.252,0,3.468,0.472,4.733,0.979c-1.169,5.295-2.142,12.975-0.597,20.72  C63.632,51.491,64.107,53.564,64.566,55.57z M64.3,26.803c-1.31-0.52-2.74-1.014-5.203-1.014c-2.676,0-4.134,0.584-5.545,1.15  c-1.292,0.518-2.511,1.007-4.802,1.007c-1.69,0-2.768-0.265-3.656-0.571c-0.438-1.781-0.873-3.212-1.19-4.174l21.433,0.013  C65.058,24.064,64.685,25.299,64.3,26.803z M42.858,12c5.204,0,9.461,4.078,9.774,9.204l-10.138-0.006h0  c-0.33,0-0.638,0.163-0.824,0.434s-0.228,0.618-0.109,0.926c0.026,0.067,1.302,3.44,2.248,8.427  c-0.683,0.091-1.445,0.13-1.738,0.138c-5.644-0.027-9.017-4.759-9.017-9.318C33.054,16.398,37.452,12,42.858,12z"/><path d="M39.542,21.805c0-0.552-0.448-1-1-1h-2.626c-0.552,0-1,0.448-1,1s0.448,1,1,1h2.626  C39.094,22.805,39.542,22.357,39.542,21.805z"/><path d="M42.858,18.488c0.552,0,1-0.448,1-1v-2.626c0-0.552-0.448-1-1-1s-1,0.448-1,1v2.626  C41.858,18.041,42.306,18.488,42.858,18.488z"/><path d="M39.099,24.15l-1.857,1.857c-0.391,0.391-0.391,1.023,0,1.414c0.195,0.195,0.451,0.293,0.707,0.293s0.512-0.098,0.707-0.293  l1.857-1.857c0.391-0.391,0.391-1.023,0-1.414S39.49,23.76,39.099,24.15z"/><path d="M45.911,19.752c0.256,0,0.512-0.098,0.707-0.293l1.857-1.857c0.391-0.391,0.391-1.023,0-1.414s-1.023-0.391-1.414,0  l-1.857,1.857c-0.391,0.391-0.391,1.023,0,1.414C45.399,19.655,45.655,19.752,45.911,19.752z"/><path d="M39.099,19.459c0.195,0.195,0.451,0.293,0.707,0.293s0.512-0.098,0.707-0.293c0.391-0.391,0.391-1.023,0-1.414l-1.857-1.857  c-0.391-0.391-1.023-0.391-1.414,0s-0.391,1.023,0,1.414L39.099,19.459z"/><text x="0" y="115" fill="#000000" font-size="5px" font-weight="bold" font-family="'Helvetica Neue', Helvetica, Arial-Unicode, Arial, Sans-serif">Created by Made by Made</text><text x="0" y="120" fill="#000000" font-size="5px" font-weight="bold" font-family="'Helvetica Neue', Helvetica, Arial-Unicode, Arial, Sans-serif">from the Noun Project</text></svg>