<svg xmlns="http://www.w3.org/2000/svg" xmlns:xlink="http://www.w3.org/1999/xlink" version="1.1" x="0px" y="0px" viewBox="0 0 100 125" style="enable-background:new 0 0 100 100;" xml:space="preserve"><path d="M26.6,34.4c1.7,1.3,3.8,2,6,2c0.8,0,1.6-0.1,2.4-0.3c0.5,2,1.3,3.8,2.6,4.8c1.3,1,2.5,1.6,3.6,2.1c2,0.9,3.4,1.6,4.7,4.9  c0.2,0.4,0.3,0.8,0.5,1.3c1.1,3,2.7,7.1,8.1,7.8v26.9h-6.4c-0.6,0-1,0.4-1,1s0.4,1,1,1h14.7c0.6,0,1-0.4,1-1s-0.4-1-1-1h-6.3V57  c5.9-0.4,7.4-4.7,8.6-7.8c0.2-0.4,0.3-0.9,0.5-1.3c1.4-3.3,2.8-4,4.7-4.9c1.1-0.5,2.2-1,3.6-2.1c4-3.1,3.3-13.4,3.2-14.5  c0-0.5-0.5-0.9-1-0.9H43.8c-0.4-5.5-5-9.8-10.5-9.8c-5.8,0-10.6,4.7-10.6,10.6C22.7,29.4,24.2,32.5,26.6,34.4z M72.6,39.3  c-1.1,0.9-2.2,1.4-3.2,1.8c-2.1,1-4.1,1.9-5.7,6c-0.2,0.4-0.3,0.9-0.5,1.3c-1.2,3.3-2.4,6.5-7.5,6.6c-5.1-0.1-6.2-3.2-7.5-6.6  c-0.2-0.5-0.3-0.9-0.5-1.3c-1.7-4.1-3.6-5-5.7-6c-1-0.5-2-0.9-3.2-1.8c-1.2-0.9-1.9-3-2.2-5.3c1.8,0.4,4.1,0.7,7.3,0.7  c5.1,0,7.9-0.8,10.6-1.6c2.7-0.8,5.2-1.5,10.1-1.5c4.8,0,7.4,0.7,10.1,1.5l0.2,0.1C74.6,35.8,74,38.3,72.6,39.3z M75.1,31.1  c-2.7-0.8-5.5-1.5-10.5-1.5c-5.1,0-7.9,0.8-10.6,1.6c-2.7,0.8-5.2,1.5-10.1,1.5c-3.4,0-5.7-0.4-7.5-0.8c-0.1-1.6-0.1-3.2-0.1-4.4  h38.8C75.2,28.5,75.2,29.8,75.1,31.1z M33.3,17.7c4.5,0,8.1,3.4,8.5,7.8h-6.4c-0.5,0-1,0.4-1,0.9c-0.1,0.7-0.3,4.2,0.2,7.8  c-3.3,0.7-5.5-0.3-6.8-1.4c-2-1.5-3.1-4-3.1-6.6C24.7,21.5,28.5,17.7,33.3,17.7z"/><path d="M30.4,26.2c0-0.6-0.4-1-1-1h-2.3c-0.6,0-1,0.4-1,1s0.4,1,1,1h2.3C30,27.2,30.4,26.8,30.4,26.2z"/><path d="M33.3,23.4c0.6,0,1-0.4,1-1v-2.3c0-0.6-0.4-1-1-1s-1,0.4-1,1v2.3C32.3,23,32.7,23.4,33.3,23.4z"/><path d="M29.9,28.2l-1.6,1.6c-0.4,0.4-0.4,1,0,1.4c0.2,0.2,0.5,0.3,0.7,0.3s0.5-0.1,0.7-0.3l1.6-1.6c0.4-0.4,0.4-1,0-1.4  C30.9,27.8,30.2,27.8,29.9,28.2z"/><path d="M36,24.5c0.3,0,0.5-0.1,0.7-0.3l1.6-1.6c0.4-0.4,0.4-1,0-1.4c-0.4-0.4-1-0.4-1.4,0l-1.6,1.6c-0.4,0.4-0.4,1,0,1.4  C35.5,24.4,35.7,24.5,36,24.5z"/><path d="M29.9,24.2c0.2,0.2,0.5,0.3,0.7,0.3s0.5-0.1,0.7-0.3c0.4-0.4,0.4-1,0-1.4l-1.6-1.6c-0.4-0.4-1-0.4-1.4,0  c-0.4,0.4-0.4,1,0,1.4L29.9,24.2z"/><text x="0" y="115" fill="#000000" font-size="5px" font-weight="bold" font-family="'Helvetica Neue', Helvetica, Arial-Unicode, Arial, Sans-serif">Created by Made by Made</text><text x="0" y="120" fill="#000000" font-size="5px" font-weight="bold" font-family="'Helvetica Neue', Helvetica, Arial-Unicode, Arial, Sans-serif">from the Noun Project</text></svg>