<svg xmlns="http://www.w3.org/2000/svg" xmlns:xlink="http://www.w3.org/1999/xlink" version="1.1" x="0px" y="0px" viewBox="0 0 100 125" style="enable-background:new 0 0 100 100;" xml:space="preserve"><path d="M80.5,34.5H29.7c-0.5,0-0.9,0.4-1,0.9c0,0.1-0.3,2-0.3,4.9c-1.6-0.4-4.8-0.8-7,0.8c-1.5,1.1-2.2,2.8-2.2,5.2  c0,7.8,6.5,11.3,13.4,15l1.2,0.6c2.2,3.6,5.1,6.9,9.3,9.5c0.2,0.1,0.3,0.2,0.5,0.2h23c0.2,0,0.4-0.1,0.5-0.2  c18.1-11.5,14.4-35.8,14.4-36.1C81.4,34.8,81,34.5,80.5,34.5z M21.2,46.2c0-1.7,0.5-2.9,1.4-3.5c1.6-1.2,4.5-0.7,5.8-0.4  c0.2,4.5,1,10.6,3.7,16.4C26.1,55.4,21.2,52.4,21.2,46.2z M66.3,69.6H43.9c-14.7-9.5-13.7-28.8-13.3-33.1h49.1  C80.1,40.7,81.1,59.9,66.3,69.6z"/><text x="0" y="115" fill="#000000" font-size="5px" font-weight="bold" font-family="'Helvetica Neue', Helvetica, Arial-Unicode, Arial, Sans-serif">Created by Made by Made</text><text x="0" y="120" fill="#000000" font-size="5px" font-weight="bold" font-family="'Helvetica Neue', Helvetica, Arial-Unicode, Arial, Sans-serif">from the Noun Project</text></svg>