<svg xmlns="http://www.w3.org/2000/svg" xmlns:xlink="http://www.w3.org/1999/xlink" version="1.1" x="0px" y="0px" viewBox="0 0 100 125" style="enable-background:new 0 0 100 100;" xml:space="preserve"><path d="M37.8,75h25.4c2,0,4.4-0.6,4.5-2.2l3.4-42.2c0-0.3-0.1-0.6-0.3-0.9c-0.4-0.5-1.2-0.5-1.6-0.5H31.7c-0.4,0-1.1,0.1-1.6,0.5  c-0.2,0.2-0.3,0.6-0.3,0.9l3.4,42.2C33.4,74.5,35.8,75,37.8,75z M65.8,72.5c-0.2,0.2-1.1,0.5-2.6,0.5H37.8c-1.5,0-2.3-0.3-2.6-0.5  l-2.1-25.9c1.7,0.8,3.7,1.4,6.6,1.4c4.9,0,7.5-1.8,10.1-3.6c2.4-1.7,4.7-3.2,8.9-3.2c4.3,0,6.5,1.6,8.9,3.2c0.1,0.1,0.2,0.2,0.4,0.2  L65.8,72.5z M69.1,31.2l-0.9,11.2c-2.4-1.6-5-3.2-9.5-3.2c-4.9,0-7.5,1.8-10.1,3.6C46.2,44.5,44,46,39.7,46c-3.1,0-5.1-0.8-6.8-1.8  l-1.1-13H69.1z"/><path d="M48.6,58.5c-0.7-0.7-1.9-0.7-2.7,0l-2.8,2.8c-0.4,0.4-0.6,0.8-0.6,1.3s0.2,1,0.6,1.3l2.8,2.8c0.4,0.4,0.8,0.6,1.3,0.6  c0.5,0,1-0.2,1.3-0.6l2.8-2.8c0.7-0.7,0.7-1.9,0-2.7L48.6,58.5z M47.2,65.4l-2.7-2.7l2.7-2.7l2.7,2.7L47.2,65.4z"/><path d="M59,54.7c-0.7-0.7-1.9-0.7-2.7,0l-2.8,2.8c-0.4,0.4-0.6,0.8-0.6,1.3s0.2,1,0.6,1.3l2.8,2.8c0.4,0.4,0.8,0.6,1.3,0.6  c0.5,0,1-0.2,1.3-0.6l2.8-2.8c0.7-0.7,0.7-1.9,0-2.7L59,54.7z M57.7,61.5L55,58.8l2.7-2.7l2.7,2.7L57.7,61.5z"/><path d="M62.4,44.7c-0.7-0.7-1.9-0.7-2.7,0l-2.8,2.8c-0.7,0.7-0.7,1.9,0,2.7l2.8,2.8c0.4,0.4,0.8,0.6,1.3,0.6s1-0.2,1.3-0.6l2.8-2.8  c0.4-0.4,0.6-0.8,0.6-1.3c0-0.5-0.2-1-0.6-1.3L62.4,44.7z M61,51.6l-2.7-2.7l2.7-2.7l2.7,2.7L61,51.6z"/><path d="M43.8,56l-0.6-4c-0.1-1-1.1-1.8-2.1-1.6l-4,0.6c-0.5,0.1-0.9,0.3-1.2,0.7c-0.3,0.4-0.4,0.9-0.4,1.4l0.6,4  c0.1,0.9,0.9,1.6,1.9,1.6c0.1,0,0.2,0,0.3,0l4-0.6C43.3,58,44,57,43.8,56z M38.1,56.7l-0.5-3.8l3.8-0.5l0.5,3.8L38.1,56.7z"/><path d="M47.3,54c0.3,0.7,1,1.2,1.7,1.2c0.2,0,0.5,0,0.7-0.1l3.7-1.5c1-0.4,1.4-1.5,1-2.5l-1.5-3.7c-0.4-1-1.5-1.4-2.5-1l-3.7,1.5  c-1,0.4-1.4,1.5-1,2.5L47.3,54z M51.1,48.1l1.5,3.5l-3.5,1.5l-1.5-3.5L51.1,48.1z"/><text x="0" y="115" fill="#000000" font-size="5px" font-weight="bold" font-family="'Helvetica Neue', Helvetica, Arial-Unicode, Arial, Sans-serif">Created by Made by Made</text><text x="0" y="120" fill="#000000" font-size="5px" font-weight="bold" font-family="'Helvetica Neue', Helvetica, Arial-Unicode, Arial, Sans-serif">from the Noun Project</text></svg>