<svg xmlns="http://www.w3.org/2000/svg" xmlns:xlink="http://www.w3.org/1999/xlink" version="1.1" x="0px" y="0px" viewBox="0 0 100 125" style="enable-background:new 0 0 100 100;" xml:space="preserve"><path d="M59.738,55.042c0.191,0.183,0.439,0.275,0.689,0.275c0.196,0,0.394-0.058,0.566-0.176c0.481-0.331,0.931-0.717,1.336-1.149  c1.491-1.589,2.273-3.664,2.203-5.843c-0.07-2.179-0.984-4.199-2.573-5.689c-1.59-1.49-3.653-2.278-5.843-2.204  c-2.178,0.07-4.199,0.984-5.689,2.573c-0.378,0.402-0.716,0.845-1.004,1.313c-0.247,0.402-0.179,0.923,0.163,1.248L59.738,55.042z   M60.871,52.624c-0.122,0.13-0.25,0.255-0.381,0.373l-3.337-3.173l5.346-2.036c0.014,0.141,0.03,0.282,0.034,0.426  C62.587,49.858,61.996,51.425,60.871,52.624z M61.979,45.846l-4.884,1.86l1.753-4.929c0.633,0.277,1.224,0.656,1.743,1.142  C61.184,44.475,61.651,45.129,61.979,45.846z M51.886,44.197c1.125-1.199,2.65-1.89,4.295-1.942  c0.242-0.007,0.483,0.005,0.721,0.025l-1.941,5.46l-3.37-3.204C51.685,44.42,51.783,44.307,51.886,44.197z"/><path d="M56.567,59.501c0.305-0.36,0.316-0.886,0.027-1.259l-8.582-11.07c-0.291-0.374-0.801-0.496-1.228-0.287  c-0.53,0.258-1.033,0.572-1.493,0.935c-1.713,1.347-2.799,3.28-3.059,5.444c-0.259,2.164,0.34,4.299,1.687,6.012  c1.608,2.045,4.004,3.113,6.423,3.113c1.765,0,3.542-0.568,5.034-1.741C55.812,60.306,56.212,59.92,56.567,59.501z M46.53,49.391  c0.139-0.109,0.283-0.213,0.432-0.311l2.821,3.639l-5.593,1.208c0.007-0.142,0.013-0.284,0.03-0.427  C44.416,51.868,45.235,50.408,46.53,49.391z M45.493,58.039c-0.502-0.639-0.865-1.355-1.082-2.113l5.108-1.104l-2.475,4.609  C46.467,59.067,45.939,58.606,45.493,58.039z M54.142,59.075c-1.538,1.21-3.478,1.563-5.247,1.138l2.741-5.105l2.85,3.676  C54.374,58.886,54.259,58.982,54.142,59.075z"/><path d="M37.9,21.805c0-0.553-0.448-1-1-1h-2.626c-0.552,0-1,0.447-1,1s0.448,1,1,1H36.9C37.453,22.805,37.9,22.357,37.9,21.805z"/><path d="M41.217,18.488c0.552,0,1-0.447,1-1v-2.627c0-0.553-0.448-1-1-1s-1,0.447-1,1v2.627  C40.217,18.041,40.665,18.488,41.217,18.488z"/><path d="M37.458,24.15l-1.857,1.857c-0.391,0.391-0.391,1.023,0,1.414c0.195,0.195,0.451,0.293,0.707,0.293s0.512-0.098,0.707-0.293  l1.857-1.857c0.391-0.391,0.391-1.023,0-1.414S37.849,23.76,37.458,24.15z"/><path d="M44.27,19.753c0.256,0,0.512-0.098,0.707-0.293l1.857-1.857c0.391-0.391,0.391-1.023,0-1.414s-1.023-0.391-1.414,0  l-1.857,1.857c-0.391,0.391-0.391,1.023,0,1.414C43.758,19.655,44.014,19.753,44.27,19.753z"/><path d="M37.015,16.188c-0.391-0.391-1.023-0.391-1.414,0s-0.391,1.023,0,1.414l1.857,1.857c0.195,0.195,0.451,0.293,0.707,0.293  s0.512-0.098,0.707-0.293c0.391-0.391,0.391-1.023,0-1.414L37.015,16.188z"/><path d="M68.91,61.124c3.24-5.918,2.31-14.752-2.314-21.981c-2.658-4.155-2.062-6.527-1.074-10.456  c0.466-1.854,0.994-3.955,1.272-6.638c0.029-0.282-0.062-0.562-0.252-0.773c-0.189-0.21-0.459-0.33-0.743-0.33H52.978  c-0.443-6.108-5.542-10.944-11.761-10.944c-6.509,0-11.804,5.295-11.804,11.804c0,5.538,4.117,11.285,11.036,11.318  c0.054-0.001,1.033-0.027,1.99-0.156c0.109,1.895-0.323,3.725-1.89,6.175c-4.624,7.229-5.554,16.063-2.314,21.981  c1.833,3.347,5.812,7.301,14.338,7.597v19.28h-6.396c-0.552,0-1,0.447-1,1s0.448,1,1,1h14.792c0.552,0,1-0.447,1-1s-0.448-1-1-1  h-6.396v-19.28C63.098,68.425,67.078,64.471,68.91,61.124z M63.582,28.199c-0.643,2.556-1.193,4.77-0.687,7.315  c-1.143-0.434-2.487-0.778-4.477-0.778c-2.819,0-4.353,0.687-5.836,1.352c-1.352,0.605-2.628,1.177-5.021,1.177  c-1.635,0-2.723-0.266-3.611-0.59c0.969-3.054,0.351-5.539-0.387-8.476c-0.382-1.522-0.809-3.218-1.09-5.254h22.199  C64.391,24.981,63.965,26.677,63.582,28.199z M40.429,31.123c-5.644-0.026-9.016-4.759-9.016-9.318c0-5.406,4.398-9.804,9.804-9.804  c5.116,0,9.323,3.94,9.761,8.944h-9.633c-0.283,0-0.553,0.12-0.743,0.33c-0.189,0.211-0.281,0.491-0.252,0.773  c0.279,2.683,0.807,4.783,1.273,6.638c0.208,0.826,0.395,1.58,0.541,2.299C41.482,31.077,40.722,31.115,40.429,31.123z   M39.989,60.164c-2.899-5.297-1.998-13.312,2.245-19.943c0.376-0.588,0.692-1.149,0.961-1.691c1.046,0.388,2.39,0.735,4.366,0.735  c2.82,0,4.355-0.688,5.839-1.352c1.351-0.605,2.627-1.177,5.019-1.177c2.397,0,3.673,0.572,5.025,1.179l0.28,0.124  c0.312,0.692,0.697,1.414,1.188,2.181c4.242,6.632,5.144,14.646,2.245,19.943c-2.357,4.306-7.054,6.583-13.583,6.586  C47.042,66.747,42.346,64.47,39.989,60.164z"/><text x="0" y="115" fill="#000000" font-size="5px" font-weight="bold" font-family="'Helvetica Neue', Helvetica, Arial-Unicode, Arial, Sans-serif">Created by Made by Made</text><text x="0" y="120" fill="#000000" font-size="5px" font-weight="bold" font-family="'Helvetica Neue', Helvetica, Arial-Unicode, Arial, Sans-serif">from the Noun Project</text></svg>