<svg xmlns="http://www.w3.org/2000/svg" xmlns:xlink="http://www.w3.org/1999/xlink" version="1.1" x="0px" y="0px" viewBox="0 0 100 125" style="enable-background:new 0 0 100 100;" xml:space="preserve"><path d="M37.938,33.049c-4.557,7.313-5.448,16.158-2.189,22.111c1.891,3.453,6.027,7.542,14.951,7.746V88h-6.396  c-0.553,0-1,0.448-1,1s0.447,1,1,1h14.792c0.553,0,1-0.448,1-1s-0.447-1-1-1h-6.396V62.887c8.473-0.384,12.449-4.358,14.294-7.727  c3.3-6.029,2.353-15.028-2.358-22.395c-3.555-5.555-2.148-8.105-1.218-9.793c0.116-0.211,0.225-0.408,0.317-0.593  c0.154-0.31,0.137-0.678-0.045-0.972c-0.183-0.294-0.504-0.474-0.851-0.474H51.763C51.314,14.831,46.217,10,40.002,10  c-6.509,0-11.804,5.295-11.804,11.804C28.198,26.993,31.814,32.366,37.938,33.049z M65.238,54.2  c-2.407,4.396-7.202,6.722-13.867,6.726c-6.666-0.003-11.461-2.329-13.868-6.726c-2.96-5.407-2.04-13.587,2.29-20.356  c0.39-0.609,0.718-1.186,1.01-1.74c1.055,0.398,2.412,0.757,4.407,0.757c2.835,0,4.377-0.701,5.868-1.378  c1.356-0.616,2.638-1.199,5.038-1.199c2.406,0,3.688,0.583,5.045,1.201l0.519,0.234c0.022,0.01,0.045,0.007,0.067,0.015  c0.331,0.664,0.726,1.365,1.203,2.111C67.278,40.613,68.198,48.793,65.238,54.2z M60.712,29.112c-1.168-0.46-2.54-0.829-4.595-0.829  c-2.834,0-4.375,0.701-5.866,1.378c-1.356,0.617-2.639,1.199-5.04,1.199c-1.609,0-2.689-0.261-3.572-0.582  c1.348-3.503,0.69-5.772-0.073-7.344h19.612C60.502,24.324,59.908,26.26,60.712,29.112z M40.002,12c5.113,0,9.318,3.935,9.761,8.934  h-9.86c-0.347,0-0.668,0.179-0.851,0.474c-0.182,0.294-0.199,0.662-0.045,0.972c0.093,0.185,0.201,0.382,0.317,0.593  c0.833,1.51,2.035,3.717-0.263,8.141c-5.549-0.113-8.863-4.793-8.863-9.31C30.198,16.398,34.596,12,40.002,12z"/><path d="M33.06,22.804h2.626c0.553,0,1-0.448,1-1s-0.447-1-1-1H33.06c-0.553,0-1,0.448-1,1S32.507,22.804,33.06,22.804z"/><path d="M40.002,18.487c0.553,0,1-0.448,1-1v-2.626c0-0.552-0.447-1-1-1s-1,0.448-1,1v2.626  C39.002,18.04,39.449,18.487,40.002,18.487z"/><path d="M36.243,24.149l-1.857,1.857c-0.391,0.391-0.391,1.023,0,1.414c0.195,0.195,0.451,0.293,0.707,0.293  s0.512-0.098,0.707-0.293l1.857-1.857c0.391-0.391,0.391-1.023,0-1.414S36.634,23.759,36.243,24.149z"/><path d="M43.055,19.752c0.256,0,0.512-0.098,0.707-0.293l1.857-1.857c0.391-0.391,0.391-1.023,0-1.414s-1.023-0.391-1.414,0  l-1.857,1.857c-0.391,0.391-0.391,1.023,0,1.414C42.543,19.654,42.799,19.752,43.055,19.752z"/><path d="M36.243,19.459c0.195,0.195,0.451,0.293,0.707,0.293s0.512-0.098,0.707-0.293c0.391-0.391,0.391-1.023,0-1.414L35.8,16.188  c-0.391-0.391-1.023-0.391-1.414,0s-0.391,1.023,0,1.414L36.243,19.459z"/><text x="0" y="115" fill="#000000" font-size="5px" font-weight="bold" font-family="'Helvetica Neue', Helvetica, Arial-Unicode, Arial, Sans-serif">Created by Made by Made</text><text x="0" y="120" fill="#000000" font-size="5px" font-weight="bold" font-family="'Helvetica Neue', Helvetica, Arial-Unicode, Arial, Sans-serif">from the Noun Project</text></svg>