<svg xmlns="http://www.w3.org/2000/svg" xmlns:xlink="http://www.w3.org/1999/xlink" version="1.1" x="0px" y="0px" viewBox="0 0 100 125" style="enable-background:new 0 0 100 100;" xml:space="preserve"><path d="M36.073,21.074c0-0.553-0.448-1-1-1h-2.44c-0.552,0-1,0.447-1,1s0.448,1,1,1h2.44  C35.625,22.074,36.073,21.627,36.073,21.074z"/><path d="M39.083,18.064c0.552,0,1-0.447,1-1v-2.44c0-0.553-0.448-1-1-1s-1,0.447-1,1v2.44  C38.083,17.617,38.531,18.064,39.083,18.064z"/><path d="M35.54,23.203l-1.725,1.726c-0.391,0.391-0.391,1.023,0,1.414c0.195,0.195,0.451,0.293,0.707,0.293s0.512-0.098,0.707-0.293  l1.725-1.726c0.391-0.391,0.391-1.023,0-1.414S35.931,22.812,35.54,23.203z"/><path d="M41.919,19.238c0.256,0,0.512-0.098,0.707-0.293l1.726-1.725c0.391-0.39,0.391-1.023,0-1.414  c-0.391-0.391-1.024-0.391-1.415,0l-1.726,1.725c-0.391,0.39-0.391,1.023,0,1.414C41.407,19.141,41.663,19.238,41.919,19.238z"/><path d="M35.229,15.807c-0.391-0.391-1.023-0.391-1.414,0s-0.391,1.023,0,1.414l1.725,1.725c0.195,0.195,0.451,0.293,0.707,0.293  s0.512-0.098,0.707-0.293c0.391-0.391,0.391-1.023,0-1.414L35.229,15.807z"/><path d="M42.006,89.632C42.196,89.865,42.481,90,42.782,90h18.54c0.301,0,0.585-0.135,0.775-0.368  c10.201-12.516,4.192-66.097,3.931-68.372c-0.058-0.505-0.485-0.886-0.994-0.886H49.841C49.439,14.588,44.615,10,38.729,10  c-6.149,0-11.152,5.003-11.152,11.152c0,4.989,3.544,10.147,9.517,10.645C35.787,48.596,34.454,80.366,42.006,89.632z M60.832,88  h-17.56c-6.376-8.66-5.526-36.643-4.355-53.43c1.295,0.365,2.959,0.69,5.397,0.69c3.503,0,5.421-0.655,7.275-1.29  c1.778-0.607,3.457-1.182,6.626-1.182c3.176,0,4.855,0.575,6.633,1.185l0.304,0.103C66.34,50.802,67.272,79.254,60.832,88z   M64.993,31.91c-1.71-0.577-3.583-1.121-6.778-1.121c-3.502,0-5.419,0.655-7.273,1.289c-1.778,0.608-3.457,1.183-6.628,1.183  c-2.458,0-3.985-0.346-5.25-0.731c0.365-4.862,0.732-8.547,0.902-10.156h24.171C64.299,23.914,64.643,27.353,64.993,31.91z   M29.577,21.152c0-5.047,4.105-9.152,9.152-9.152c4.784,0,8.716,3.691,9.113,8.374h-8.773c-0.508,0-0.936,0.381-0.994,0.886  c-0.06,0.522-0.422,3.744-0.821,8.546C32.434,29.392,29.577,25.203,29.577,21.152z"/><text x="0" y="115" fill="#000000" font-size="5px" font-weight="bold" font-family="'Helvetica Neue', Helvetica, Arial-Unicode, Arial, Sans-serif">Created by Made by Made</text><text x="0" y="120" fill="#000000" font-size="5px" font-weight="bold" font-family="'Helvetica Neue', Helvetica, Arial-Unicode, Arial, Sans-serif">from the Noun Project</text></svg>