<svg xmlns="http://www.w3.org/2000/svg" xmlns:xlink="http://www.w3.org/1999/xlink" version="1.1" x="0px" y="0px" viewBox="0 0 100 125" style="enable-background:new 0 0 100 100;" xml:space="preserve"><path d="M51.2,55.3v28.2h-6.4c-0.6,0-1,0.4-1,1s0.4,1,1,1h14.8c0.6,0,1-0.4,1-1s-0.4-1-1-1h-6.4V55.3c4-0.2,7.2-1.7,9.4-4.7  c7.6-10,1.6-32.4,1.3-33.4c-0.1-0.4-0.5-0.7-1-0.7H42c-0.4,0-0.8,0.3-1,0.7c-0.3,0.9-6.8,23.3,0.7,33.3C44,53.5,47.2,55.1,51.2,55.3  z M42.8,18.5h19.5c0.2,1,0.7,2.8,1.1,5.1c-1.5-0.7-3.1-1.3-5.9-1.3c-3.1,0-4.8,0.8-6.5,1.6c-1.5,0.7-2.9,1.4-5.6,1.4  c-1.8,0-3-0.3-4-0.7C41.9,21.8,42.5,19.6,42.8,18.5z M41.1,26.7c1.1,0.4,2.4,0.7,4.3,0.7c3.1,0,4.8-0.8,6.5-1.6  c1.5-0.7,2.9-1.4,5.6-1.4c2.7,0,4.1,0.7,5.6,1.4l0.6,0.3l0.1-0.1c1.1,7.4,1.7,17.9-2.6,23.5c-2,2.6-4.8,3.9-8.7,3.9c0,0-0.1,0-0.1,0  c0,0,0,0,0,0c0,0,0,0-0.1,0c-0.1,0-0.1,0-0.2,0c-3.8,0-6.7-1.3-8.6-4C39.3,43.9,39.9,33.9,41.1,26.7z"/><text x="0" y="115" fill="#000000" font-size="5px" font-weight="bold" font-family="'Helvetica Neue', Helvetica, Arial-Unicode, Arial, Sans-serif">Created by Made by Made</text><text x="0" y="120" fill="#000000" font-size="5px" font-weight="bold" font-family="'Helvetica Neue', Helvetica, Arial-Unicode, Arial, Sans-serif">from the Noun Project</text></svg>